<?xml version="1.0" standalone="no"?>
<!DOCTYPE svg PUBLIC "-//W3C//DTD SVG 20010904//EN"
 "http://www.w3.org/TR/2001/REC-SVG-20010904/DTD/svg10.dtd">
<svg version="1.0" xmlns="http://www.w3.org/2000/svg"
 width="183.000000pt" height="183.000000pt" viewBox="0 0 183.000000 183.000000"
 preserveAspectRatio="xMidYMid meet">
<metadata>
Created by potrace 1.11, written by Peter Selinger 2001-2013
</metadata>
<g transform="translate(0.000000,183.000000) scale(0.100000,-0.100000)"
fill="#000000" stroke="none">
<path d="M877 1407 c-21 -5 -53 -25 -72 -44 -31 -32 -37 -46 -50 -111 -6 -32
31 -108 64 -131 34 -24 82 -38 156 -46 108 -12 139 -48 139 -166 0 -104 -29
-132 -148 -144 -129 -13 -195 -63 -209 -160 -8 -59 31 -133 85 -158 123 -58
238 15 262 166 16 97 47 124 151 132 120 10 182 51 205 135 21 77 -23 163 -98
193 -20 8 -66 18 -102 22 -113 12 -142 32 -154 105 -17 101 -24 118 -60 158
-42 47 -106 66 -169 49z"/>
<path d="M525 1080 c-111 -24 -164 -155 -102 -249 89 -134 298 -72 300 89 1
103 -97 182 -198 160z"/>
<path d="M134 750 c-163 -36 -169 -274 -8 -316 40 -11 44 -11 84 -1 90 24 141
110 117 197 -24 88 -106 139 -193 120z"/>
<path d="M1605 741 c-105 -36 -141 -158 -74 -252 42 -60 148 -80 213 -39 107
66 103 231 -7 283 -51 25 -79 26 -132 8z"/>
</g>
</svg>
