<svg width="605" height="347" viewBox="0 0 605 347" fill="none" xmlns="http://www.w3.org/2000/svg">
<g clip-path="url(#clip0_1773_23)">
<path d="M411.37 120C411.37 131.05 406.9 141.05 399.66 148.28C392.42 155.52 382.42 160 371.37 160C360.32 160 350.32 164.47 343.09 171.71C335.85 178.95 331.37 188.95 331.37 200C331.37 211.05 326.9 221.05 319.66 228.28C312.42 235.52 302.42 240 291.37 240C280.32 240 270.32 235.52 263.09 228.28C255.85 221.05 251.37 211.05 251.37 200C251.37 188.95 255.85 178.95 263.09 171.71C270.32 164.47 280.32 160 291.37 160C302.42 160 312.42 155.52 319.66 148.28C326.9 141.05 331.37 131.05 331.37 120C331.37 97.9 313.47 80 291.37 80C280.32 80 270.32 75.52 263.09 68.28C255.85 61.05 251.37 51.05 251.37 40C251.37 28.95 255.85 18.95 263.09 11.71C270.32 4.47 280.32 0 291.37 0C313.47 0 331.37 17.9 331.37 40C331.37 51.05 335.85 61.05 343.09 68.28C350.32 75.52 360.32 80 371.37 80C393.47 80 411.37 97.9 411.37 120Z" fill="#F44250"/>
<path d="M251.37 120C251.37 97.9086 233.462 80 211.37 80C189.279 80 171.37 97.9086 171.37 120C171.37 142.091 189.279 160 211.37 160C233.462 160 251.37 142.091 251.37 120Z" fill="white"/>
<path d="M171.37 200C171.37 177.909 153.462 160 131.37 160C109.279 160 91.3701 177.909 91.3701 200C91.3701 222.091 109.279 240 131.37 240C153.462 240 171.37 222.091 171.37 200Z" fill="white"/>
<path d="M491.37 200C491.37 177.909 473.462 160 451.37 160C429.279 160 411.37 177.909 411.37 200C411.37 222.091 429.279 240 451.37 240C473.462 240 491.37 222.091 491.37 200Z" fill="white"/>
<path d="M45.53 345.36C44.06 343.43 43.15 338.79 42.59 331.2C42.02 323.16 38.4 320.55 31.27 320.55H16.89V345.35H0V274H34.43C52.89 274 61.95 282.61 61.95 296.31C61.95 306.84 55.27 313.41 46.55 314.54C54.14 316.01 58.44 320.43 59.23 328.81C60.25 339.34 60.59 342.74 62.97 345.34H45.53V345.36ZM31.71 307.31C40.66 307.31 45.07 304.71 45.07 297.68C45.07 291.34 40.65 287.83 31.71 287.83H16.87V307.31H31.71Z" fill="white"/>
<path d="M115.78 328.82C113.18 340.26 104.23 346.71 91.0898 346.71C75.1198 346.71 63.7998 336.97 63.7998 321C63.7998 305.03 75.3498 293.71 90.7498 293.71C107.4 293.71 116.12 305.15 116.12 318.85V323.83H79.8798C80.3298 330.51 85.3198 334.36 91.6598 334.36C97.3198 334.36 100.83 332.21 102.65 327.57L115.79 328.82H115.78ZM100.38 315.12C100.04 310.14 96.8698 305.61 90.6398 305.61C84.0698 305.61 81.0098 309.8 80.1098 315.12H100.38Z" fill="white"/>
<path d="M168.11 331.65C168.11 334.25 169.24 335.39 171.28 335.39C172.75 335.39 174 335.16 175.47 334.48V343.2C172.98 345.01 169.81 346.48 164.83 346.48C158.83 346.48 154.41 343.31 152.94 337.65C150.11 343.43 143.88 346.48 136.07 346.48C125.99 346.48 119.65 341.38 119.65 332.78C119.65 323.15 126.9 319.08 138 316.93L152.04 314.44V313.53C152.04 308.77 149.66 305.94 144.68 305.94C139.7 305.94 137.55 308.88 136.64 313.07L121.47 311.94C123.17 301.18 131.21 293.71 145.59 293.71C158.73 293.71 168.13 299.6 168.13 313.3V331.65H168.11ZM152.03 323.05L143.76 324.75C138.66 325.77 135.49 327.01 135.49 330.98C135.49 333.92 137.76 335.74 141.27 335.74C147.27 335.74 152.03 331.21 152.03 324.08V323.06V323.05Z" fill="white"/>
<path d="M201.93 293.72C216.88 293.72 225.26 303.57 226.5 315.58L212.91 316.6C211.78 309.81 208.15 306.18 202.04 306.18C195.93 306.18 191.28 310.6 191.28 320.22C191.28 329.84 195.7 334.26 202.04 334.26C208.38 334.26 211.78 330.52 212.91 323.73L226.5 324.86C225.25 336.98 216.87 346.72 201.93 346.72C186.19 346.72 174.75 336.19 174.75 320.22C174.75 304.25 186.19 293.72 201.93 293.72Z" fill="white"/>
<path d="M234.11 306.51H227.09V296.54L230.71 295.97C235.69 295.06 237.17 292.46 238.41 287.82L240.11 281.14H250.19V295.07H263.55V306.51H250.19V327.46C250.19 331.76 252.23 333.58 256.08 333.58C258.57 333.58 261.18 332.9 264.23 331.54V342.3C260.49 345.13 256.19 346.72 249.62 346.72C241.47 346.72 234.11 343.21 234.11 331.88V306.51Z" fill="white"/>
<path d="M384.32 346.71C368.24 346.71 357.25 335.84 357.25 320.21C357.25 304.58 368.23 293.71 384.32 293.71C400.41 293.71 411.5 304.69 411.5 320.21C411.5 335.73 400.4 346.71 384.32 346.71ZM384.32 334.37C391.45 334.37 394.96 328.59 394.96 320.21C394.96 311.83 391.45 306.05 384.32 306.05C377.19 306.05 373.79 311.83 373.79 320.21C373.79 328.59 377.07 334.37 384.32 334.37Z" fill="white"/>
<path d="M448.31 295.07H464.73V345.35H448.31V337.54C445.59 343.2 439.93 346.71 432.34 346.71C418.75 346.71 414.45 337.42 414.45 326.67V295.07H430.76V322.7C430.76 329.83 433.14 333.8 439.14 333.8C445.14 333.8 448.31 328.7 448.31 320.66V295.07Z" fill="white"/>
<path d="M477.59 306.51H470.57V296.54L474.19 295.97C479.17 295.06 480.65 292.46 481.89 287.82L483.59 281.14H493.67V295.07H507.03V306.51H493.67V327.46C493.67 331.76 495.71 333.58 499.56 333.58C502.05 333.58 504.66 332.9 507.71 331.54V342.3C503.97 345.13 499.67 346.72 493.1 346.72C484.95 346.72 477.59 343.21 477.59 331.88V306.51Z" fill="white"/>
<path d="M562.9 328.82C560.3 340.26 551.35 346.71 538.21 346.71C522.24 346.71 510.92 336.97 510.92 321C510.92 305.03 522.47 293.71 537.87 293.71C554.52 293.71 563.24 305.15 563.24 318.85V323.83H527C527.45 330.51 532.44 334.36 538.78 334.36C544.44 334.36 547.95 332.21 549.76 327.57L562.9 328.82ZM547.5 315.12C547.16 310.14 543.99 305.61 537.76 305.61C531.19 305.61 528.13 309.8 527.23 315.12H547.5Z" fill="white"/>
<path d="M603.64 311.04C601.04 309.57 598.54 309 595.03 309C588.24 309 583.71 312.85 583.71 321.57V345.35H567.4V295.07H583.71V304.24C585.64 298.58 590.84 293.71 597.64 293.71C600.7 293.71 603.3 294.62 604.66 295.75L603.64 311.04Z" fill="white"/>
<path fill-rule="evenodd" clip-rule="evenodd" d="M354.22 345.53C354.22 341.3 354.22 337.43 353.58 329.16C352.78 320.86 348.46 316.65 341.07 315.17C349.83 314.03 356.31 307.21 356.31 296.75C356.31 282.76 347.1 274 328.55 274H294.15V288.58H325.13C333.32 288.58 337.42 292.09 337.42 297.89C337.42 304.49 333.32 306.98 325.13 306.98H294.15V321.88H324.22C330.7 321.88 334.23 323.7 334.8 331.89C335.23 337.48 335.18 340.25 335.12 342.91C335.1 343.76 335.09 344.61 335.09 345.53H354.21H354.22Z" fill="white"/>
<path fill-rule="evenodd" clip-rule="evenodd" d="M294.15 334.42V345.53H318.48V338.42C318.48 336.93 317.75 334.42 314.37 334.42H294.15Z" fill="white"/>
</g>
<defs>
<clipPath id="clip0_1773_23">
<rect width="604.66" height="346.31" fill="white"/>
</clipPath>
</defs>
</svg>
