<svg width="145" height="76" viewBox="0 0 145 76" fill="none" xmlns="http://www.w3.org/2000/svg">
<path d="M91.217 16.5198C89.1407 15.8557 88.0685 16.0796 85.8907 15.8375C82.524 15.4639 81.1827 14.1254 80.6137 10.6805C80.2953 8.75749 80.6712 5.94188 79.8583 4.19869C78.3037 0.87488 74.666 -0.615822 71.0114 0.235019C67.9259 0.95443 65.3585 4.09148 65.2162 7.31153C65.0537 10.9881 67.113 14.1252 70.649 15.2078C72.329 15.7231 74.1139 15.9825 75.8684 16.1139C79.0861 16.3526 79.3334 18.1721 80.2038 19.6697C80.7525 20.6139 81.2843 21.5443 81.2843 24.3597C81.2843 27.1751 80.7492 28.1055 80.2038 29.0497C79.3334 30.5439 78.2597 31.5227 75.042 31.7648C73.2875 31.8962 71.4992 32.1556 69.8226 32.671C66.2866 33.757 64.2272 36.8906 64.3898 40.5672C64.5321 43.7872 67.0994 46.9243 70.185 47.6437C73.8396 48.498 77.4773 47.0038 79.0319 43.68C79.8482 41.9368 80.2953 39.9619 80.6137 38.0389C81.1861 34.594 82.5273 33.2555 85.8907 32.882C88.0685 32.6399 90.3224 32.882 92.3633 31.7025C94.5199 30.0996 96.4466 27.6939 96.4466 24.3597C96.4466 21.0255 94.3703 17.5297 91.217 16.5198Z" fill="#F44250"/>
<path d="M56.6745 32.1735C52.4305 32.1735 48.9688 28.6454 48.9688 24.3201C48.9688 19.9949 52.4305 16.4668 56.6745 16.4668C60.9184 16.4668 64.3802 19.9949 64.3802 24.3201C64.3802 28.6419 60.915 32.1735 56.6745 32.1735Z" fill="white"/>
<path d="M42.4793 48.1334C38.2422 48.123 34.7906 44.581 34.8008 40.2524C34.811 35.9307 38.2864 32.413 42.5337 32.4268C46.7742 32.4372 50.2257 35.9792 50.2122 40.3078C50.2019 44.6261 46.7266 48.1438 42.4793 48.1334Z" fill="white"/>
<path d="M99.7362 48.1333C95.4856 48.1574 91.9967 44.6537 91.9728 40.339C91.9491 36.007 95.387 32.4513 99.6206 32.4269C103.871 32.4027 107.36 35.9065 107.384 40.2212C107.408 44.5497 103.97 48.1089 99.7362 48.1333Z" fill="white"/>
<path d="M14.6796 75.7001C14.1397 75.1253 14.0625 74.4256 13.8312 72.0764C13.6512 70.252 12.6743 69.3273 11.0032 69.0024C12.9828 68.7525 14.4482 67.253 14.4482 64.9538C14.4482 61.8799 12.3658 59.9556 8.1753 59.9556H0V75.7001H4.29332V70.4769H7.19838C8.66376 70.4769 9.46073 70.8768 9.58927 72.6762C9.71781 74.3006 9.92348 75.2753 10.2577 75.7001H14.6796ZM4.29332 67.2031V63.3544H7.40405C9.25506 63.3544 10.1806 64.0292 10.1806 65.3037C10.1806 66.7532 9.25506 67.2031 7.40405 67.2031H4.29332Z" fill="white"/>
<path d="M24.2132 71.7265C23.8276 72.6012 23.1077 72.9761 21.9765 72.9761C20.7168 72.9761 19.6885 72.3263 19.5857 70.9518H27.6324V69.8271C27.6324 66.8032 25.6014 64.2541 21.7709 64.2541C18.1974 64.2541 15.5237 66.7782 15.5237 70.302C15.5237 73.8508 18.146 76 21.8223 76C24.8559 76 26.964 74.5755 27.5553 72.0264L24.2132 71.7265ZM19.6371 69.0024C19.7913 67.9528 20.3826 67.1531 21.7195 67.1531C22.9535 67.1531 23.6219 68.0028 23.6733 69.0024H19.6371Z" fill="white"/>
<path d="M35.9541 71.0517C35.9541 72.5012 35.0029 73.3509 33.8203 73.3509C33.1262 73.3509 32.6634 72.9761 32.6634 72.4013C32.6634 71.6765 33.2547 71.3766 34.2574 71.1767L35.9541 70.8768V71.0517ZM40.0418 68.6276C40.0418 65.5286 37.8051 64.2541 34.7715 64.2541C31.3266 64.2541 29.4499 65.9535 29.09 68.4026L32.9462 68.6526C33.1262 67.8278 33.589 67.253 34.5145 67.253C35.5171 67.253 35.9541 67.8029 35.9541 68.7275V68.9025L32.7406 69.4273C30.2468 69.8521 28.6529 70.7768 28.6529 72.9261C28.6529 74.8254 30.1183 75.95 32.3549 75.95C34.1803 75.95 35.4914 75.2753 36.1598 73.9757C36.5454 75.2503 37.6509 75.95 39.0649 75.95C40.2475 75.95 41.0701 75.6251 41.6614 75.2253V73.076C41.3272 73.201 41.0701 73.251 40.7359 73.251C40.2989 73.251 40.0418 73.0011 40.0418 72.4262V68.6276Z" fill="white"/>
<path d="M42.136 70.127C42.136 73.6758 44.784 76 48.4089 76C51.8538 76 53.782 73.8508 54.0648 71.1517L50.6455 70.9018C50.3627 72.2763 49.6686 72.9511 48.4603 72.9511C47.2006 72.9511 46.3265 72.1264 46.3265 70.127C46.3265 68.1277 47.2006 67.303 48.4603 67.303C49.6686 67.303 50.3627 67.9528 50.6455 69.3273L54.0648 69.1024C53.782 66.4283 51.8538 64.2541 48.4089 64.2541C44.784 64.2541 42.136 66.6033 42.136 70.127Z" fill="white"/>
<path d="M56.0688 72.6012C56.0688 75.2253 57.8941 76 59.8223 76C61.3905 76 62.3931 75.6251 63.2672 75.0004V72.3763C62.5731 72.6512 62.0075 72.7511 61.4933 72.7511C60.6449 72.7511 60.1822 72.3763 60.1822 71.4266V67.353H63.1644V64.554H60.1822V61.48H57.5599L57.1743 62.9295C56.8915 63.9542 56.5316 64.554 55.3747 64.7289L54.5263 64.8539V67.353H56.0688V72.6012Z" fill="white"/>
<path d="M84.2733 75.7001C83.7334 75.1253 83.6563 74.4256 83.4249 72.0764C83.2449 70.252 82.268 69.3273 80.5969 69.0024C82.5765 68.7525 84.0419 67.253 84.0419 64.9538C84.0419 61.8799 81.9595 59.9556 77.769 59.9556H69.5937V75.7001H73.887V70.4769H76.7921C78.2575 70.4769 79.0544 70.8768 79.183 72.6762C79.3115 74.3006 79.5172 75.2753 79.8514 75.7001H84.2733ZM73.887 67.2031V63.3544H76.9978C78.8488 63.3544 79.7743 64.0292 79.7743 65.3037C79.7743 66.7532 78.8488 67.2031 76.9978 67.2031H73.887Z" fill="white"/>
<path d="M89.3079 70.127C89.3079 68.4526 89.9249 67.303 91.3903 67.303C92.83 67.303 93.4727 68.4526 93.4727 70.127C93.4727 71.8015 92.83 72.9511 91.3903 72.9511C89.9249 72.9511 89.3079 71.8015 89.3079 70.127ZM97.6632 70.127C97.6632 66.6782 95.118 64.2541 91.3903 64.2541C87.6369 64.2541 85.1174 66.6782 85.1174 70.127C85.1174 73.6008 87.6369 76 91.3903 76C95.118 76 97.6632 73.6008 97.6632 70.127Z" fill="white"/>
<path d="M106.875 70.0271C106.875 71.7265 106.361 72.8261 105.05 72.8261C103.79 72.8261 103.353 72.0014 103.353 70.5019V64.554H99.1882V71.5765C99.1882 73.9007 100.139 76 103.276 76C104.998 76 106.258 75.2753 106.875 74.0257V75.7001H111.04V64.554H106.875V70.0271Z" fill="white"/>
<path d="M113.712 72.6012C113.712 75.2253 115.537 76 117.466 76C119.034 76 120.036 75.6251 120.91 75.0004V72.3763C120.216 72.6512 119.651 72.7511 119.137 72.7511C118.288 72.7511 117.825 72.3763 117.825 71.4266V67.353H120.808V64.554H117.825V61.48H115.203L114.818 62.9295C114.535 63.9542 114.175 64.554 113.018 64.7289L112.17 64.8539V67.353H113.712V72.6012Z" fill="white"/>
<path d="M130.587 71.7265C130.201 72.6012 129.482 72.9761 128.35 72.9761C127.091 72.9761 126.062 72.3263 125.96 70.9518H134.006V69.8271C134.006 66.8032 131.975 64.2541 128.145 64.2541C124.571 64.2541 121.898 66.7782 121.898 70.302C121.898 73.8508 124.52 76 128.196 76C131.23 76 133.338 74.5755 133.929 72.0264L130.587 71.7265ZM126.011 69.0024C126.165 67.9528 126.757 67.1531 128.093 67.1531C129.327 67.1531 129.996 68.0028 130.047 69.0024H126.011Z" fill="white"/>
<path d="M144.59 64.6789C144.308 64.454 143.691 64.2541 142.996 64.2541C141.48 64.2541 140.271 65.2787 139.86 66.5283V64.554H135.695V75.7001H139.86V70.6019C139.86 68.7275 140.811 68.0278 142.354 68.0278C143.151 68.0278 143.768 68.1777 144.333 68.5026L144.59 64.6789Z" fill="white"/>
</svg>
